<?xml version="1.0" standalone="no"?>
<!DOCTYPE svg PUBLIC "-//W3C//DTD SVG 20010904//EN"
 "http://www.w3.org/TR/2001/REC-SVG-20010904/DTD/svg10.dtd">
<svg version="1.0" xmlns="http://www.w3.org/2000/svg"
 width="581.000000pt" height="581.000000pt" viewBox="0 0 581.000000 581.000000"
 preserveAspectRatio="xMidYMid meet">
<symbol id="ras">
<g transform="translate(0.000000,581.000000) scale(0.100000,-0.100000)"
fill="#000000" stroke="none">
<path d="M0 2905 l0 -2905 2905 0 2905 0 0 2905 0 2905 -2905 0 -2905 0 0
-2905z m3125 1910 c384 -58 745 -230 1035 -493 l45 -41 -85 -1 -85 0 -55 46
c-253 209 -547 341 -885 395 -104 17 -407 17 -510 0 -336 -55 -628 -184 -875
-388 l-64 -53 -84 0 c-49 0 -81 4 -77 9 14 24 199 171 286 228 282 185 567
279 954 317 69 7 302 -4 400 -19z m-1304 -1022 c232 -79 353 -246 353 -483 -1
-170 -51 -287 -179 -415 -63 -64 -99 -90 -172 -127 -51 -26 -108 -50 -128 -54
-19 -3 -35 -11 -35 -18 1 -23 138 -203 210 -276 117 -117 238 -169 361 -156
68 7 79 -4 79 -77 0 -117 -73 -207 -184 -228 -224 -41 -446 159 -661 596 -76
155 -95 207 -95 262 0 85 41 111 193 123 126 10 161 19 220 54 94 55 139 135
139 248 0 94 -28 150 -102 200 -71 48 -151 69 -271 69 -92 0 -235 -22 -249
-38 -4 -5 -13 -73 -19 -152 -7 -79 -21 -212 -31 -295 -45 -373 -50 -608 -15
-713 10 -29 38 -76 61 -104 37 -43 44 -57 44 -94 0 -86 -93 -153 -224 -162
-88 -6 -132 14 -160 71 -28 57 -23 186 18 501 50 377 64 665 40 823 -4 28 -7
31 -24 22 -36 -19 -76 -12 -88 15 -16 34 -15 107 0 159 25 81 142 166 313 225
139 49 220 61 380 57 123 -4 151 -8 226 -33z m1617 -678 c68 -21 93 -35 134
-75 l51 -49 -5 -89 c-5 -117 -26 -156 -85 -160 l-42 -3 -8 -67 c-29 -238 13
-406 109 -442 94 -34 98 -37 98 -77 0 -85 -39 -156 -104 -190 -41 -22 -150
-22 -192 0 -71 36 -118 119 -132 232 -7 58 -8 59 -21 35 -53 -96 -160 -197
-259 -245 -102 -49 -248 -55 -360 -13 -67 25 -145 100 -177 171 -66 144 -51
376 36 550 124 246 336 401 619 451 14 3 77 3 140 1 91 -2 132 -8 198 -30z
m1129 19 c140 -29 223 -89 223 -161 0 -51 -41 -115 -97 -152 -67 -45 -90 -48
-133 -22 -104 65 -140 76 -245 76 -76 0 -108 -5 -132 -18 -44 -23 -67 -60 -55
-84 28 -51 66 -65 249 -93 291 -43 384 -110 384 -274 0 -156 -79 -293 -222
-386 -83 -54 -163 -74 -289 -75 -164 0 -298 51 -366 140 -22 30 -29 50 -32 99
-5 102 48 157 122 126 155 -65 198 -75 326 -75 107 0 132 3 172 22 83 38 100
101 33 128 -18 8 -97 26 -176 40 -350 62 -428 121 -417 314 16 283 318 465
655 395z m-2859 -1694 c147 -123 347 -237 526 -299 209 -73 389 -104 606 -104
217 0 397 31 606 104 179 62 375 174 526 300 l59 49 87 0 87 -1 -32 -27 c-257
-222 -453 -337 -727 -427 -219 -72 -338 -90 -606 -90 -268 0 -387 18 -606 90
-273 90 -472 206 -727 427 l-32 27 87 1 86 0 60 -50z"/>
<path d="M2978 2848 c-129 -12 -250 -95 -305 -207 -24 -49 -28 -68 -28 -146 0
-73 4 -98 22 -130 61 -114 185 -154 320 -103 73 27 176 127 215 209 35 73 67
187 74 269 l6 66 -58 18 c-76 24 -162 33 -246 24z"/>
</g>
</symbol>
</svg>
